<?xml version="1.0" standalone="no"?>
<!DOCTYPE svg PUBLIC "-//W3C//DTD SVG 20010904//EN"
 "http://www.w3.org/TR/2001/REC-SVG-20010904/DTD/svg10.dtd">
<svg version="1.0" xmlns="http://www.w3.org/2000/svg"
 width="441.000000pt" height="441.000000pt" viewBox="0 0 441.000000 441.000000"
 preserveAspectRatio="xMidYMid meet">
<metadata>
Created by potrace 1.11, written by Peter Selinger 2001-2013
</metadata>
<g transform="translate(0.000000,441.000000) scale(0.100000,-0.100000)"
fill="#000000" stroke="none">
<path d="M694 3492 c-11 -10 -19 -23 -16 -30 2 -8 -2 -10 -15 -5 -16 6 -16 5
-4 -10 12 -16 12 -17 -5 -11 -10 4 -25 12 -33 18 -12 9 -12 8 -1 -11 8 -12 18
-19 24 -16 5 3 6 1 2 -6 -6 -9 -11 -9 -21 -1 -9 8 -14 5 -18 -10 -4 -14 -10
-18 -23 -13 -13 5 -15 3 -9 -8 6 -11 5 -12 -5 -2 -11 10 -18 9 -37 -9 -24 -22
-32 -45 -11 -32 7 4 8 3 4 -5 -6 -9 -11 -9 -22 0 -11 9 -14 8 -15 -7 0 -12 -2
-14 -6 -6 -4 10 -9 7 -17 -9 -6 -12 -19 -23 -29 -25 -9 -1 -15 2 -11 7 3 5 9
7 14 4 5 -3 11 -1 15 5 10 16 -21 12 -35 -5 -6 -8 -9 -19 -5 -25 9 -15 -1 -12
-20 6 -14 15 -15 13 -11 -17 5 -31 4 -32 -6 -11 -6 12 -15 22 -21 22 -5 0 -4
-7 3 -15 10 -12 9 -16 -4 -21 -9 -3 -23 -3 -32 0 -14 5 -15 4 -4 -9 9 -11 9
-15 1 -15 -7 0 -9 -5 -5 -12 4 -7 3 -8 -5 -4 -6 4 -8 12 -5 18 5 7 2 8 -5 4
-7 -5 -10 -15 -7 -23 3 -8 2 -12 -3 -8 -5 3 -12 -1 -15 -7 -3 -7 -3 -2 0 12 6
22 5 23 -10 8 -9 -10 -13 -24 -10 -35 4 -13 3 -15 -4 -4 -7 10 -11 10 -17 1
-4 -6 -13 -9 -21 -6 -17 7 -28 -10 -12 -18 7 -3 1 -4 -15 -2 -15 2 -30 -1 -34
-7 -3 -5 -1 -7 4 -4 6 4 13 1 16 -7 4 -10 0 -12 -15 -8 -16 4 -19 2 -13 -8 6
-10 4 -12 -8 -7 -10 3 -17 2 -17 -4 0 -6 -5 -7 -10 -4 -6 4 -7 11 -4 17 4 7 2
8 -4 4 -9 -5 -9 -13 -2 -26 11 -21 -4 -38 -16 -19 -5 8 -3 9 6 4 9 -5 11 -4 6
4 -12 18 -27 2 -21 -22 2 -12 2 -17 -1 -10 -3 7 -12 9 -21 6 -12 -5 -14 -3 -8
7 5 9 4 11 -3 6 -7 -4 -12 -14 -12 -22 0 -8 5 -12 10 -9 6 3 10 1 10 -4 0 -16
-21 -13 -34 4 -9 12 -11 2 -12 -45 -1 -33 2 -58 6 -55 5 3 12 1 15 -5 4 -6 1
-9 -7 -8 -9 2 -13 -8 -12 -32 0 -23 5 -34 13 -32 7 1 10 -2 6 -8 -3 -6 -10 -8
-15 -5 -6 4 -9 -43 -7 -112 1 -92 5 -117 15 -115 8 1 11 -2 7 -8 -3 -6 -10 -8
-15 -5 -6 4 -9 -43 -7 -112 1 -92 5 -117 15 -115 8 1 11 -2 7 -8 -3 -6 -10 -8
-15 -5 -6 3 -9 -42 -8 -107 0 -88 4 -117 17 -133 15 -18 15 -19 -1 -7 -15 12
-16 6 -16 -65 0 -43 4 -86 10 -97 6 -11 6 -16 1 -13 -14 9 -14 -55 0 -72 9
-11 9 -13 0 -8 -8 5 -12 -4 -11 -33 0 -23 4 -37 10 -34 7 4 7 0 0 -12 -5 -11
-10 -36 -10 -56 -1 -32 1 -36 19 -33 11 2 17 0 14 -6 -4 -5 -11 -7 -16 -4 -15
10 -23 -26 -10 -47 7 -11 8 -17 2 -14 -7 4 -10 -6 -9 -29 1 -19 6 -35 12 -35
8 0 8 -3 1 -8 -16 -11 -18 -165 -2 -156 9 6 9 4 1 -7 -13 -16 -14 -120 -2
-113 5 3 6 10 3 15 -10 14 5 11 22 -6 11 -11 19 -13 27 -5 7 5 16 7 19 3 4 -3
7 -1 7 6 0 8 6 11 16 7 14 -5 15 -4 4 9 -10 13 -9 15 9 16 33 2 39 4 47 11 3
4 -3 6 -14 3 -12 -2 -26 4 -33 13 -11 14 -11 15 0 5 16 -13 44 -6 34 10 -4 6
-1 7 8 1 19 -11 40 -14 34 -4 -3 4 4 19 16 31 11 13 18 18 14 12 -3 -7 -2 -13
3 -13 6 0 13 7 16 16 3 9 13 14 21 10 8 -3 17 0 21 6 5 7 2 8 -6 3 -9 -5 -11
-4 -6 3 4 7 16 12 27 12 10 0 19 5 19 11 0 5 -6 7 -13 3 -13 -8 -8 -2 37 36
16 14 26 20 22 13 -9 -17 14 -28 27 -13 9 10 9 11 -2 5 -10 -6 -12 -4 -7 4 4
6 15 10 24 9 12 -2 17 4 16 20 0 19 1 20 15 8 21 -19 55 2 41 24 -12 20 -4 28
24 23 13 -3 27 1 31 8 6 8 4 10 -6 4 -12 -7 -12 -6 -1 7 7 9 23 15 35 13 22
-4 22 -4 2 11 -20 16 -20 16 2 10 16 -5 23 -2 28 14 4 12 9 19 12 17 2 -3 0
-15 -7 -26 -6 -12 -7 -21 -2 -21 6 0 12 9 15 21 4 14 10 18 18 13 9 -5 10 -2
6 10 -5 12 -3 15 6 9 18 -11 38 -13 32 -2 -3 4 3 14 15 21 11 7 20 16 20 21 0
4 -5 5 -10 2 -6 -4 -9 3 -6 17 2 13 -2 30 -8 38 -10 13 -9 13 6 1 10 -7 16
-17 13 -21 -3 -5 0 -12 6 -16 8 -4 9 -3 5 4 -4 7 -1 12 6 12 8 0 9 3 3 8 -5 4
-16 15 -24 25 -13 17 -12 18 10 14 13 -2 18 -2 12 0 -16 5 -17 19 -3 28 11 7
-2 24 -35 43 -17 10 -15 11 15 6 33 -5 34 -4 15 10 -11 8 -24 12 -29 9 -5 -4
-6 -1 -2 6 6 9 11 9 21 1 10 -8 15 -8 21 1 5 8 3 9 -6 4 -8 -5 -11 -3 -8 6 3
8 12 13 19 11 8 -2 10 0 6 5 -5 4 -13 9 -18 9 -5 1 -14 2 -20 3 -5 0 -7 6 -4
11 4 6 12 7 18 4 7 -4 9 -4 5 1 -4 4 -2 15 5 23 9 13 9 14 0 8 -17 -9 -17 6 0
23 6 8 7 11 2 8 -6 -3 -21 1 -35 9 -25 14 -24 14 10 8 33 -5 34 -4 15 10 -11
8 -24 12 -29 9 -5 -4 -6 -1 -2 6 6 9 11 9 21 1 10 -8 15 -8 21 1 5 8 3 9 -6 4
-8 -5 -11 -3 -8 6 3 8 12 13 19 11 8 -2 10 0 6 5 -5 4 -13 9 -18 9 -5 1 -14 2
-20 3 -5 0 -7 6 -4 11 4 6 12 7 18 4 7 -4 9 -4 5 1 -4 4 -2 15 5 23 9 13 9 14
0 8 -17 -9 -17 6 0 23 6 8 7 11 2 8 -6 -3 -21 1 -35 9 -25 14 -24 14 10 8 33
-5 34 -4 15 10 -11 8 -24 12 -29 9 -5 -4 -6 -1 -2 6 6 9 11 9 21 1 10 -8 15
-8 21 1 5 8 3 9 -6 4 -8 -5 -11 -3 -8 6 3 8 12 13 19 11 8 -2 10 0 6 5 -5 4
-13 9 -18 9 -5 1 -14 2 -20 3 -5 0 -7 6 -4 11 4 6 12 7 18 4 7 -4 9 -4 5 1 -4
4 -2 15 5 23 9 13 9 14 0 8 -7 -4 -13 -3 -13 1 0 5 6 15 13 22 6 8 7 11 2 8
-6 -3 -21 1 -35 9 -25 14 -24 14 10 8 33 -5 34 -4 15 10 -11 8 -24 12 -29 9
-5 -4 -6 -1 -2 6 6 9 11 9 21 1 10 -8 15 -8 21 1 5 8 3 9 -6 4 -10 -6 -12 -4
-7 8 4 12 -2 21 -21 32 l-27 15 27 -4 c15 -3 33 -7 40 -11 7 -3 4 1 -7 9 -60
45 -62 48 -25 31 l35 -16 -30 26 c-25 21 -26 26 -10 23 11 -2 23 -7 27 -13 5
-6 8 -6 8 2 0 6 -4 15 -10 18 -5 3 -10 11 -10 16 0 6 4 8 9 5 10 -7 8 29 -4
57 -4 10 -3 17 5 17 6 0 8 -4 5 -10 -9 -14 8 -12 24 3 11 10 12 8 2 -10 -8
-17 -8 -22 5 -27 8 -3 17 1 20 9 5 12 8 12 20 0 19 -18 18 -31 -1 -15 -10 9
-15 9 -15 1 0 -11 13 -15 39 -12 7 2 10 -2 7 -7 -7 -12 18 -35 28 -25 10 11
37 12 30 2 -3 -5 -10 -7 -15 -4 -5 3 -6 -1 -3 -9 3 -9 10 -16 16 -16 5 0 7 4
4 9 -3 5 0 11 8 14 8 3 13 -1 12 -11 -1 -11 6 -16 17 -16 13 2 16 -3 12 -20
-5 -17 -4 -18 4 -6 9 12 11 12 11 1 0 -11 5 -9 22 5 13 10 17 12 11 4 -10 -13
-4 -19 38 -39 27 -13 49 -28 49 -33 0 -5 -13 0 -30 12 -43 30 -37 18 7 -16 20
-15 33 -22 29 -16 -4 7 -1 12 9 12 10 0 15 -6 12 -13 -3 -8 1 -14 8 -14 7 0
11 6 8 14 -3 7 0 13 7 13 6 0 9 -3 7 -7 -10 -18 11 -47 37 -50 20 -3 26 0 20
8 -4 8 -3 9 4 5 6 -4 9 -13 5 -21 -3 -10 1 -15 12 -15 9 0 14 4 10 9 -3 5 -1
12 4 15 11 7 9 -13 -3 -32 -4 -7 -5 -16 -2 -19 3 -4 6 -2 6 4 0 6 7 13 15 17
9 3 15 0 15 -10 0 -8 -4 -12 -10 -9 -5 3 -10 1 -10 -5 0 -6 6 -10 13 -9 6 1
21 1 32 0 16 -1 17 -3 6 -10 -10 -6 -5 -9 15 -8 16 1 32 6 35 10 4 5 10 4 13
-2 4 -6 2 -11 -5 -11 -8 0 -8 -4 1 -15 7 -8 16 -12 21 -9 5 3 9 1 9 -4 0 -15
28 -23 36 -10 4 6 3 8 -3 5 -6 -4 -13 -1 -16 6 -3 7 4 12 18 12 15 0 21 -5 18
-15 -4 -12 -3 -13 5 -1 5 7 14 11 19 8 5 -3 10 4 10 15 3 28 10 33 29 17 14
-11 17 -10 26 4 5 10 14 14 20 11 7 -4 8 -2 4 5 -6 8 -12 9 -20 2 -7 -6 -17
-7 -21 -3 -5 4 -4 0 0 -8 8 -13 7 -13 -8 -1 -21 17 -21 20 1 16 9 -1 22 0 27
4 17 10 29 7 43 -9 11 -13 11 -11 2 8 -6 12 -16 22 -22 22 -6 0 -9 3 -6 6 4 3
17 0 30 -7 22 -12 22 -11 8 6 -14 17 -14 18 10 5 23 -12 24 -12 11 4 -8 9 -11
19 -7 23 3 3 6 1 6 -5 0 -7 5 -12 11 -12 6 0 9 6 6 14 -6 14 16 17 29 4 3 -4
13 -4 21 -1 12 5 11 9 -8 20 -13 8 -16 12 -7 9 9 -3 19 2 22 10 3 9 10 13 15
10 5 -3 14 1 21 9 7 8 16 13 20 10 5 -3 12 4 15 16 4 11 9 18 12 16 9 -10 -18
-48 -29 -41 -7 4 -8 3 -4 -5 4 -7 2 -10 -5 -9 -7 2 -14 -6 -16 -17 -3 -18 -2
-18 5 -2 4 10 10 17 13 15 10 -7 55 38 52 52 -2 8 3 4 11 -10 l16 -25 -5 34
c-5 30 -4 32 10 17 9 -9 22 -16 28 -15 9 0 8 2 0 6 -7 2 -13 9 -13 15 0 6 7 7
16 4 10 -4 13 -2 8 6 -5 8 -2 9 9 5 16 -6 22 8 18 35 0 4 7 4 16 1 10 -4 14
-2 10 4 -3 5 1 10 10 10 13 0 12 -4 -5 -18 -18 -14 -19 -18 -7 -23 8 -3 14 0
12 7 -1 7 8 11 23 10 14 -1 19 1 12 4 -10 4 -10 8 0 21 11 13 11 14 -1 7 -10
-6 -12 -4 -7 4 4 7 13 10 19 8 7 -2 18 3 25 12 12 14 13 14 8 -1 -4 -15 -3
-16 14 -6 12 8 15 15 9 19 -6 3 3 9 20 12 17 4 31 12 31 19 0 9 -3 9 -12 0
-15 -15 -28 -15 -28 0 0 6 3 8 7 5 3 -4 12 -2 20 4 7 6 13 8 14 3 0 -5 5 0 10
11 9 19 9 19 5 -2 -3 -15 0 -20 10 -16 8 3 11 10 7 16 -3 5 -1 7 5 4 5 -4 8
-17 5 -30 -5 -18 -3 -20 8 -9 7 6 18 12 24 12 5 0 2 -5 -7 -11 -21 -11 -24
-30 -5 -25 6 1 9 1 4 -1 -4 -3 -5 -9 -1 -14 3 -5 2 -9 -3 -8 -23 4 -25 -3 -4
-15 20 -11 21 -14 7 -19 -10 -4 -15 -3 -11 3 3 6 1 10 -4 10 -6 0 -11 -7 -11
-15 0 -14 12 -19 33 -16 12 2 8 -6 -10 -20 -11 -10 -14 -10 -9 -1 4 6 3 12 -1
12 -5 0 -14 -10 -22 -22 -13 -20 -13 -22 1 -10 13 10 18 9 28 -3 11 -13 10
-14 -1 -10 -10 4 -15 -2 -16 -15 -1 -12 2 -18 9 -14 6 4 8 3 4 -4 -3 -5 0 -13
6 -16 7 -4 3 -4 -9 -2 -30 5 -29 0 2 -16 l25 -13 -23 -14 c-20 -13 -21 -13 -8
2 9 11 10 17 2 17 -10 0 -12 -4 -11 -27 0 -5 10 -7 21 -7 11 1 17 -1 14 -5 -4
-3 -12 -6 -17 -6 -6 0 -13 -6 -16 -14 -3 -10 1 -12 19 -8 23 6 23 5 5 -8 -11
-8 -16 -15 -12 -15 5 0 3 -7 -4 -15 -8 -10 -9 -15 -2 -15 6 0 16 8 21 18 6 9
11 13 11 9 0 -4 -7 -19 -16 -32 -9 -14 -13 -25 -8 -25 4 0 -3 -12 -17 -26
l-24 -27 30 19 30 18 -19 -22 c-11 -12 -16 -22 -11 -22 4 0 2 -6 -4 -14 -8
-10 -9 -16 -1 -21 6 -3 7 -12 3 -18 -5 -9 -2 -8 8 0 13 10 16 10 16 -2 0 -8
-3 -12 -7 -10 -3 2 -12 0 -20 -6 -13 -7 -12 -9 3 -9 17 0 22 -11 10 -23 -3 -4
-13 -1 -22 6 -14 11 -14 10 -2 -5 7 -10 17 -16 21 -13 5 3 12 0 16 -6 4 -7 3
-9 -4 -5 -6 3 -13 2 -17 -4 -6 -9 8 -15 29 -11 5 1 4 -5 -4 -13 -14 -18 -25
-22 -15 -6 3 6 2 10 -2 10 -5 0 -14 -10 -22 -22 -13 -20 -13 -22 1 -10 13 10
18 9 28 -3 11 -13 10 -14 -1 -10 -10 4 -15 -2 -16 -15 -1 -12 2 -18 9 -14 6 4
8 3 4 -4 -3 -5 0 -13 6 -16 7 -4 3 -4 -9 -2 -30 5 -29 0 2 -16 l25 -13 -23
-14 c-20 -13 -21 -13 -8 2 7 10 9 17 3 17 -12 0 -21 -21 -15 -38 4 -10 8 -10
21 0 14 12 14 10 3 -10 -7 -12 -17 -20 -23 -16 -7 4 -8 3 -4 -5 4 -6 13 -8 19
-4 7 3 3 -4 -8 -17 l-20 -23 25 13 25 13 -20 -23 c-13 -15 -15 -21 -5 -16 8 4
6 0 -5 -10 -18 -15 -18 -16 -1 -10 15 5 17 2 13 -14 -6 -22 20 -43 45 -37 7 2
9 2 5 -1 -4 -2 2 -13 14 -23 24 -21 34 -24 24 -10 -3 5 0 13 6 17 8 4 9 3 5
-4 -4 -7 3 -17 18 -24 26 -11 36 -38 14 -38 -6 0 -8 -3 -5 -6 4 -4 13 -1 22 6
10 8 15 9 15 2 0 -6 7 -9 15 -6 12 5 14 2 8 -12 -6 -17 -5 -17 10 -6 14 12 21
10 50 -12 19 -14 37 -23 42 -18 5 4 5 1 1 -6 -6 -9 -14 -7 -37 8 -16 12 -29
17 -29 12 0 -6 7 -13 16 -16 8 -3 13 -9 10 -14 -6 -11 45 -9 64 3 9 5 8 0 -4
-13 -11 -12 -16 -25 -13 -29 4 -3 7 -2 7 4 0 6 8 13 18 15 11 3 19 0 19 -8 0
-7 -4 -11 -8 -8 -4 2 -10 0 -13 -5 -13 -21 14 -20 29 1 l17 23 -8 -25 c-6 -23
-6 -24 12 -10 10 8 16 10 11 5 -4 -5 5 -15 20 -22 27 -12 27 -13 3 -8 -14 3
-19 2 -12 -1 6 -3 10 -9 7 -14 -3 -4 3 -7 13 -6 10 0 16 -5 14 -14 -2 -8 0
-12 4 -8 4 4 13 3 21 -3 7 -6 13 -8 13 -4 0 4 7 2 15 -5 8 -6 18 -9 24 -6 12
8 43 -23 35 -35 -3 -5 0 -8 8 -7 7 2 12 -2 11 -9 -3 -12 15 -12 36 1 10 6 12
4 7 -11 -4 -13 0 -25 11 -34 17 -13 17 -12 4 4 -13 17 -12 18 11 12 15 -4 29
-2 32 4 4 6 2 11 -5 11 -7 0 -10 3 -6 6 12 12 28 -7 17 -21 -8 -9 -7 -14 4
-18 11 -4 13 -1 9 10 -5 12 -3 14 7 8 9 -5 11 -4 6 3 -8 13 -15 122 -8 122 3
0 11 -8 19 -17 13 -16 13 -16 4 4 -6 12 -16 24 -23 27 -7 4 -3 4 10 2 12 -2
20 0 16 5 -3 5 -14 9 -25 9 -10 0 -19 4 -19 10 0 5 7 7 16 3 14 -5 15 -3 6 14
-6 11 -8 23 -5 27 3 3 1 6 -5 6 -7 0 -12 5 -12 11 0 8 6 7 17 -2 15 -12 16
-12 10 4 -4 10 -7 21 -7 23 0 3 -5 2 -12 -2 -6 -4 -8 -3 -5 3 4 6 18 9 32 8
14 -2 23 1 19 6 -3 5 -10 7 -15 4 -5 -4 -17 -1 -26 5 -17 10 -17 10 1 8 13 -2
20 4 22 20 2 12 0 22 -5 22 -6 0 -8 -9 -6 -20 3 -17 1 -19 -16 -10 -23 13 -26
22 -4 13 16 -6 17 17 2 28 -5 3 -1 9 8 12 9 4 14 3 11 -1 -3 -5 1 -9 9 -9 11
0 12 4 4 14 -6 7 -15 10 -20 7 -5 -3 -9 0 -9 5 0 6 4 11 9 11 5 0 12 7 15 16
3 8 2 13 -2 10 -4 -3 -13 4 -20 14 -8 14 -8 21 -1 26 8 4 7 9 -2 14 -10 7 -10
12 0 23 9 12 9 16 -1 21 -7 3 -1 3 15 1 26 -4 27 -3 12 18 -8 12 -15 34 -15
48 0 15 -6 29 -12 32 -10 3 -10 7 1 20 11 14 11 17 1 17 -8 0 -10 3 -7 7 4 3
3 11 -1 18 -4 6 1 3 10 -7 9 -10 15 -27 13 -38 -2 -11 1 -20 7 -20 5 0 8 7 4
15 -3 8 0 15 7 15 8 0 8 3 -2 9 -8 5 -10 14 -6 21 5 8 4 11 -2 7 -6 -4 -13 2
-16 13 -4 14 0 20 11 20 14 0 15 2 2 9 -8 6 -19 7 -25 3 -5 -3 -4 2 4 11 11
14 11 17 0 17 -11 0 -11 2 1 10 8 5 10 10 3 10 -12 0 -12 24 0 36 10 10 -13
35 -26 27 -6 -3 -7 -1 -3 6 6 9 11 9 22 0 11 -9 14 -7 14 10 0 12 -4 20 -8 17
-5 -3 -9 1 -9 9 0 11 4 12 14 3 24 -20 26 1 2 23 -13 11 -18 18 -11 14 9 -5
11 1 8 19 -3 15 -1 24 5 21 5 -4 7 -9 5 -13 -2 -4 2 -16 10 -27 8 -10 14 -14
14 -9 0 6 -3 14 -7 18 -4 4 -9 18 -10 31 -3 20 0 23 14 19 16 -5 16 -4 -1 6
-15 10 -20 9 -27 -1 -5 -8 -9 -9 -10 -4 0 6 -2 21 -4 35 -2 14 -1 19 1 12 3
-6 11 -9 16 -6 7 4 8 2 4 -4 -4 -7 -2 -12 3 -12 14 0 14 17 1 25 -6 4 -8 11
-5 16 3 5 0 7 -7 6 -7 -2 -10 -2 -5 0 4 3 7 11 7 19 0 9 -5 12 -12 8 -10 -6
-10 -4 0 7 15 16 16 33 0 23 -7 -4 -8 -3 -4 5 4 6 13 9 19 5 7 -3 3 2 -7 10
-22 18 -14 21 14 6 16 -8 18 -8 14 5 -4 8 -12 15 -20 15 -8 0 -14 4 -14 10 0
5 6 8 13 6 6 -1 9 -1 5 1 -5 3 -8 13 -8 24 0 10 -5 19 -12 19 -6 0 -9 2 -6 5
8 8 39 -6 33 -15 -3 -5 -1 -11 4 -14 5 -4 8 2 6 11 -2 10 -4 21 -4 26 -1 4 -8
7 -16 7 -8 0 -15 4 -15 10 0 5 8 7 18 4 10 -4 13 -2 7 3 -12 10 -37 53 -30 53
2 0 14 -10 25 -22 13 -14 20 -17 18 -9 -2 8 -14 24 -27 36 -22 20 -22 21 -5
35 17 14 18 13 6 -1 -10 -14 -10 -18 1 -22 8 -3 20 -1 28 5 11 8 10 9 -3 4
-10 -3 -18 -1 -18 4 0 6 5 10 11 10 6 0 3 7 -5 16 -9 8 -16 22 -16 30 0 9 -5
12 -12 8 -10 -6 -10 -4 0 7 15 16 16 33 0 23 -7 -4 -8 -3 -4 5 4 6 13 9 19 5
7 -3 3 2 -7 10 -22 18 -14 21 14 6 16 -8 18 -8 14 5 -4 8 -12 15 -20 15 -8 0
-14 4 -14 10 0 5 6 8 13 6 6 -1 9 -1 5 1 -5 3 -8 13 -8 24 0 10 -5 19 -12 19
-6 0 -8 3 -4 7 4 4 16 -3 27 -17 14 -17 17 -19 10 -5 -7 15 -5 25 7 40 9 11
10 14 2 8 -23 -21 -42 -16 -35 8 6 16 4 20 -6 13 -11 -6 -12 -5 -2 8 7 8 10
17 8 20 -3 3 -8 16 -10 28 -2 12 -2 20 2 17 3 -4 15 -1 27 5 11 7 25 11 31 9
5 -1 7 1 2 5 -4 4 -18 9 -30 11 -17 2 -19 1 -7 -7 12 -7 10 -9 -8 -7 -22 1
-32 17 -10 17 9 0 9 3 0 12 -7 7 -12 17 -12 23 0 6 3 6 8 -1 4 -7 15 -8 27 -3
17 6 17 8 3 8 -21 1 -23 12 -5 30 8 9 8 12 0 7 -6 -3 -13 -3 -16 1 -2 5 -2 3
-1 -4 2 -7 -1 -15 -6 -18 -6 -4 -10 5 -10 18 0 29 -18 46 -42 42 -10 -2 -18 3
-18 11 0 8 -6 11 -15 8 -8 -4 -17 1 -21 10 -3 9 -13 16 -21 16 -8 0 -11 5 -7
13 6 10 4 10 -7 0 -19 -18 -34 -16 -19 3 8 8 9 14 4 13 -22 -4 -34 2 -35 19 0
13 -2 12 -9 -5 -12 -28 -20 -30 -13 -3 3 11 1 20 -5 20 -6 0 -13 8 -15 18 -4
16 -5 16 -6 0 0 -10 -5 -18 -11 -18 -13 0 -31 36 -22 46 4 5 -1 2 -10 -5 -10
-7 -15 -18 -11 -24 4 -6 1 -7 -6 -2 -9 5 -10 10 -2 18 6 6 11 16 11 21 0 6 -5
5 -12 -2 -18 -18 -32 -14 -17 5 12 15 12 16 -4 10 -13 -5 -17 -2 -15 10 2 11
-6 17 -27 20 -16 2 -37 6 -45 10 -8 3 -18 5 -23 5 -4 -1 -12 9 -17 22 -5 13
-14 27 -20 31 -5 3 -8 11 -5 16 3 5 0 6 -8 3 -8 -3 -18 -1 -21 4 -3 6 -15 8
-26 5 -13 -3 -22 1 -26 12 -6 13 -9 14 -16 3 -7 -9 -8 -6 -5 10 5 20 3 21 -10
10 -14 -11 -15 -10 -9 12 6 21 5 22 -4 8 -6 -10 -16 -18 -23 -18 -7 0 -6 4 3
10 8 5 11 12 7 16 -3 4 -14 1 -22 -6 -13 -11 -16 -11 -13 0 4 20 -43 20 -80 0
-21 -12 -28 -20 -21 -27 8 -8 7 -13 -2 -18 -8 -6 -10 -4 -4 5 6 10 4 11 -11 6
-10 -5 -25 -9 -31 -9 -7 0 -13 -6 -13 -14 0 -7 -5 -13 -11 -13 -5 0 -8 4 -5 8
3 5 -1 9 -9 9 -18 0 -19 -9 -2 -26 10 -10 8 -11 -7 -5 -13 5 -17 4 -12 -4 5
-8 2 -10 -9 -6 -10 4 -14 13 -10 23 5 12 4 13 -6 4 -10 -10 -9 -16 1 -28 11
-14 11 -16 -1 -13 -8 2 -17 8 -21 13 -7 9 -13 -18 -9 -39 1 -5 -5 -4 -13 4
-10 8 -16 9 -16 2 0 -6 -6 -9 -14 -6 -8 3 -17 0 -21 -5 -3 -6 -11 -8 -17 -5
-6 4 -5 -3 2 -16 7 -12 8 -20 3 -17 -6 4 -20 -3 -33 -15 l-22 -21 7 23 c5 15
4 20 -4 16 -6 -4 -11 -16 -11 -27 0 -10 -4 -19 -10 -19 -5 0 -7 8 -4 18 5 14
4 15 -5 2 -6 -8 -11 -11 -11 -6 0 5 -7 3 -15 -4 -18 -15 -21 -45 -3 -34 7 5 8
3 3 -6 -6 -10 -12 -8 -27 9 -20 26 -24 20 -6 -12 11 -21 10 -21 -7 -7 -17 14
-18 13 -12 -3 4 -11 3 -16 -3 -12 -6 3 -10 -2 -11 -12 0 -16 -1 -16 -9 2 -5
11 -9 16 -9 10 -1 -5 -6 -3 -12 5 -8 11 -9 9 -3 -10 6 -22 5 -23 -9 -12 -12
10 -17 10 -23 1 -4 -7 -3 -9 3 -6 11 7 28 -22 18 -31 -3 -3 -5 0 -5 7 0 8 -8
6 -24 -4 -23 -15 -24 -15 -22 2 2 10 1 12 -1 5 -3 -7 -9 -9 -15 -6 -5 4 -4 -4
3 -17 11 -22 11 -23 -4 -10 -11 9 -17 10 -18 2 -1 -6 -2 -16 -3 -23 0 -6 -8
-12 -16 -13 -8 -2 -19 -4 -25 -5 -22 -5 -36 1 -29 12 4 7 3 8 -5 4 -8 -6 -9
-12 -2 -20 8 -9 7 -13 -4 -13 -7 0 -14 3 -13 6 2 18 -3 31 -13 31 -5 0 -8 -4
-4 -9 3 -5 0 -13 -6 -17 -7 -4 -9 -3 -6 3 4 6 0 13 -8 17 -8 3 -15 11 -15 18
0 9 3 9 10 -2 7 -12 11 -12 20 -2 5 6 7 10 3 7 -3 -3 -15 2 -25 12 -10 9 -18
12 -18 7 0 -5 -5 -2 -11 6 -9 13 -10 12 -5 -2 3 -10 2 -18 -3 -18 -5 0 -11 10
-15 23 -4 19 -12 23 -40 22 -19 -1 -33 2 -30 7 3 4 0 8 -6 8 -6 0 -8 5 -5 10
3 6 -1 10 -9 10 -9 0 -16 -6 -16 -12 0 -7 -5 -5 -11 5 -6 9 -15 14 -21 11 -6
-4 -8 -3 -4 4 3 6 0 17 -8 25 -8 8 -12 18 -8 22 4 4 -3 3 -15 -4 -31 -16 -38
-14 -22 6 8 9 9 14 3 10 -6 -3 -20 0 -30 8 -26 20 -39 19 -23 -2 13 -16 12
-17 -4 -4 -13 11 -15 17 -6 28 7 7 9 16 5 20 -3 3 -6 1 -6 -5 0 -7 -5 -12 -11
-12 -5 0 -7 5 -4 10 4 6 1 9 -7 8 -7 -2 -12 3 -10 10 1 8 -2 11 -7 8 -5 -4
-11 -1 -14 6 -2 7 -3 2 -2 -12 1 -14 0 -19 -2 -12 -3 7 -8 10 -12 7 -5 -2 -7
7 -5 20 1 14 -2 25 -8 25 -6 0 -8 -7 -4 -15 3 -8 1 -15 -3 -15 -5 0 -12 8 -15
17 -6 15 -8 15 -16 3 -8 -13 -10 -12 -10 3 0 9 5 17 12 17 6 0 8 3 5 6 -4 4
-13 1 -21 -5 -10 -8 -16 -9 -21 -1 -3 6 -12 7 -18 4 -8 -4 -7 -2 1 7 11 12 14
12 22 -1 6 -9 10 -10 10 -3 0 16 -29 31 -50 26 -10 -3 -21 0 -24 6 -5 7 0 9
11 5 15 -5 15 -4 3 4 -10 8 -19 7 -29 -1 -12 -9 -13 -9 -7 1 4 6 2 12 -3 12
-22 0 -26 2 -34 16 -4 8 -5 19 -2 24 4 6 2 9 -3 8 -5 -2 -18 7 -28 19 -18 21
-20 22 -40 5z m56 -44 c0 -5 -5 -8 -11 -8 -5 0 -7 5 -4 10 3 6 2 10 -2 10 -5
0 -14 -4 -21 -10 -9 -7 -9 -7 -2 2 15 19 12 32 -5 18 -18 -15 -20 1 -3 18 10
10 16 8 30 -10 10 -13 18 -26 18 -30z m-193 -80 c0 -13 -1 -17 -4 -10 -3 6
-10 9 -16 5 -7 -4 -6 1 2 10 17 21 17 21 18 -5z m1736 -2 c3 3 11 -4 17 -16
11 -20 10 -21 -9 -11 -11 7 -25 21 -31 34 -10 20 -10 20 3 5 8 -10 17 -15 20
-12z m-469 -77 c-3 -5 -10 -7 -15 -3 -5 3 -7 10 -3 15 3 5 10 7 15 3 5 -3 7
-10 3 -15z m604 -16 c-12 -15 -22 -18 -14 -4 4 5 0 11 -6 14 -7 3 -3 4 9 4 17
-1 19 -4 11 -14z m-728 -43 c0 -5 -5 -10 -11 -10 -5 0 -7 5 -4 10 3 6 8 10 11
10 2 0 4 -4 4 -10z m-410 -110 c0 -5 -2 -10 -4 -10 -3 0 -8 5 -11 10 -3 6 -1
10 4 10 6 0 11 -4 11 -10z m1467 -66 c-4 -16 -5 -16 -6 3 -1 16 -6 20 -23 17
-21 -4 -21 -4 -3 5 24 11 39 0 32 -25z m33 -404 c0 -5 -4 -10 -10 -10 -5 0
-10 5 -10 10 0 6 5 10 10 10 6 0 10 -4 10 -10z m-2087 -121 c-14 -14 -23 -17
-28 -10 -3 7 -1 10 6 9 9 -2 13 7 13 25 -1 26 0 27 15 13 14 -15 14 -18 -6
-37z m144 -4 c0 -8 -4 -12 -9 -9 -5 3 -6 10 -3 15 9 13 12 11 12 -6z m300
-187 c-3 -8 -6 -5 -6 6 -1 11 2 17 5 13 3 -3 4 -12 1 -19z m-441 -40 c4 -7 4
-10 -1 -6 -4 4 -14 0 -22 -10 -13 -15 -13 -15 -3 6 12 25 16 27 26 10z m581
-24 c-3 -3 -12 -4 -19 -1 -8 3 -5 6 6 6 11 1 17 -2 13 -5z m-1246 -131 c13
-16 12 -17 -3 -4 -10 7 -18 15 -18 17 0 8 8 3 21 -13z m665 -5 c4 -7 4 -10 -1
-6 -4 4 -14 0 -22 -10 -13 -15 -13 -15 -3 6 12 25 16 27 26 10z m1407 -13 c-3
-8 -10 -15 -15 -15 -7 0 -6 5 1 13 6 8 7 18 3 22 -4 5 -2 5 5 1 7 -4 10 -13 6
-21z m-2092 -48 c-10 -9 -11 -8 -5 6 3 10 9 15 12 12 3 -3 0 -11 -7 -18z m9
-27 c0 -5 -4 -10 -10 -10 -5 0 -10 5 -10 10 0 6 5 10 10 10 6 0 10 -4 10 -10z
m-2 -45 c-3 -3 -9 2 -12 12 -6 14 -5 15 5 6 7 -7 10 -15 7 -18z m678 -27 c4
-7 4 -10 -1 -6 -4 4 -14 0 -22 -10 -13 -15 -13 -15 -3 6 12 25 16 27 26 10z
m2084 -148 c9 -16 8 -18 -5 -14 -9 4 -13 9 -11 12 3 3 0 12 -7 20 -9 13 -9 14
0 8 7 -4 18 -16 23 -26z m-2762 -5 c-3 -3 -9 2 -12 12 -6 14 -5 15 5 6 7 -7
10 -15 7 -18z m682 4 c0 -6 -4 -8 -9 -4 -6 3 -14 -3 -20 -12 -6 -10 -11 -15
-11 -10 0 4 5 16 12 26 12 20 28 19 28 0z m-689 -112 c-10 -9 -11 -8 -5 6 3
10 9 15 12 12 3 -3 0 -11 -7 -18z m669 -12 c0 -1 -10 -10 -22 -21 -14 -12 -18
-13 -10 -3 6 9 10 18 7 21 -3 2 2 5 10 5 8 0 15 -1 15 -2z m1454 -17 c-3 -4
-11 -5 -19 -1 -21 7 -19 12 4 10 11 0 18 -5 15 -9z m-2100 -96 c3 -5 -1 -9 -9
-9 -8 0 -12 4 -9 9 3 4 7 8 9 8 2 0 6 -4 9 -8z m419 -53 c-9 -9 -12 -7 -10 9
1 14 5 18 11 12 7 -7 6 -14 -1 -21z m-52 -16 c12 -16 12 -17 -2 -6 -9 7 -20 9
-24 5 -5 -4 -5 -1 -1 6 9 16 11 15 27 -5z m-390 -46 c-10 -9 -11 -8 -5 6 3 10
9 15 12 12 3 -3 0 -11 -7 -18z m0 -60 c-10 -9 -11 -8 -5 6 3 10 9 15 12 12 3
-3 0 -11 -7 -18z m2540 9 c5 3 9 -2 9 -12 0 -13 -3 -14 -15 -4 -8 7 -15 18
-14 24 0 7 2 6 6 -2 2 -6 9 -10 14 -6z m33 -22 c3 -8 2 -12 -4 -9 -6 3 -10 10
-10 16 0 14 7 11 14 -7z m-2409 -23 c3 -5 2 -12 -3 -15 -5 -3 -9 1 -9 9 0 17
3 19 12 6z m2494 -27 c4 3 8 -1 8 -9 0 -13 -4 -12 -19 2 -10 9 -18 21 -18 27
0 6 5 3 11 -7 6 -9 14 -15 18 -13z m-2589 -42 c0 -4 -9 -13 -20 -19 -14 -9
-21 -10 -26 -1 -4 7 -3 8 5 4 6 -4 14 0 17 8 6 16 24 22 24 8z"/>
<path d="M2087 3490 c3 -10 12 -17 21 -15 10 1 23 -2 30 -8 6 -5 12 -6 12 -3
0 13 -29 37 -49 41 -14 2 -18 -1 -14 -15z"/>
<path d="M3700 3490 c-6 -11 -7 -19 -3 -18 17 4 53 -14 53 -28 0 -10 -6 -8
-21 7 -20 20 -22 20 -40 3 -10 -9 -19 -13 -19 -8 0 5 -7 0 -15 -10 -8 -11 -15
-15 -15 -9 0 12 35 45 41 38 3 -2 5 5 6 15 1 11 -2 20 -8 20 -5 0 -8 -6 -6
-12 1 -7 -4 -12 -10 -10 -7 1 -12 -4 -10 -10 1 -7 -4 -12 -11 -10 -8 1 -11 -2
-8 -7 4 -5 2 -12 -3 -16 -6 -3 -8 -12 -4 -20 3 -8 0 -15 -7 -15 -6 0 -8 5 -5
10 3 6 -1 10 -10 10 -11 0 -15 -5 -11 -16 3 -8 2 -13 -3 -10 -5 3 -14 0 -20
-8 -13 -15 -28 -16 -51 -1 -13 8 -13 7 0 -10 14 -17 13 -18 -7 -13 -25 7 -40
-6 -22 -18 8 -5 9 -3 4 6 -5 8 -4 11 3 6 6 -4 8 -14 5 -23 -4 -11 -8 -13 -11
-5 -2 7 -13 12 -24 12 -13 0 -18 -5 -15 -14 3 -7 -3 -20 -14 -29 -10 -9 -19
-13 -19 -7 0 5 7 13 16 18 15 8 14 10 -2 16 -10 4 -15 4 -12 0 4 -3 0 -13 -8
-21 -8 -8 -11 -19 -8 -25 4 -6 2 -8 -3 -5 -6 4 -18 -2 -28 -13 -10 -11 -21
-17 -26 -15 -4 3 -12 -3 -18 -12 -5 -10 -13 -14 -17 -10 -10 10 28 37 41 30 5
-4 6 -2 2 2 -10 12 -39 16 -32 5 3 -5 -4 -11 -15 -15 -16 -5 -19 -12 -14 -28
l7 -22 -19 20 c-11 11 -16 16 -11 11 14 -19 7 -28 -10 -15 -10 7 -15 10 -11 5
9 -11 -16 -36 -37 -36 -9 0 -14 -4 -11 -9 3 -5 -4 -11 -15 -14 -13 -4 -18 -10
-13 -18 4 -8 3 -10 -4 -5 -7 4 -12 2 -12 -5 0 -7 -3 -10 -6 -7 -3 4 -1 15 5
27 8 13 8 22 1 26 -6 4 -9 3 -8 -2 4 -14 -13 -53 -23 -53 -6 0 -7 5 -3 12 5 7
3 8 -5 4 -7 -5 -10 -13 -8 -20 3 -6 -2 -17 -10 -25 -12 -11 -14 -11 -12 0 1 8
1 21 0 29 -1 13 -3 13 -10 1 -5 -8 -7 -21 -3 -29 4 -11 1 -14 -10 -9 -10 3
-19 0 -22 -9 -3 -9 -10 -13 -14 -10 -4 2 -7 -8 -6 -24 1 -22 -2 -27 -14 -23
-10 4 -13 2 -8 -5 3 -6 2 -13 -3 -16 -15 -9 -1 -45 15 -39 8 3 14 0 14 -7 0
-6 -4 -8 -10 -5 -13 8 -13 -11 1 -36 10 -20 10 -20 -18 -4 -25 15 -26 15 -8 1
17 -14 18 -18 5 -26 -13 -9 -13 -10 0 -10 12 0 12 -2 2 -9 -10 -6 -10 -10 2
-21 9 -7 13 -16 11 -21 -3 -4 3 -12 12 -18 10 -6 13 -11 7 -11 -6 0 -10 -16
-9 -35 1 -19 -2 -35 -7 -35 -5 0 -6 -5 -2 -12 4 -7 3 -8 -5 -4 -6 4 -8 12 -5
18 11 17 13 79 3 73 -4 -3 -5 -13 -2 -22 4 -9 2 -14 -3 -11 -5 4 -9 -9 -10
-27 -1 -24 5 -36 20 -44 20 -9 20 -10 -4 -11 -14 -1 -19 -4 -12 -7 6 -2 9 -10
5 -16 -4 -7 -1 -7 9 1 13 10 18 10 24 1 5 -8 3 -9 -6 -4 -10 6 -12 4 -7 -8 4
-12 2 -14 -11 -10 -15 6 -15 5 -3 -10 7 -9 10 -17 6 -17 -4 0 -2 -6 4 -14 8
-10 9 -16 1 -21 -6 -3 -7 -12 -3 -18 4 -6 7 -28 8 -48 1 -30 -2 -36 -14 -31
-14 5 -14 3 -2 -11 7 -9 10 -17 6 -17 -4 0 -2 -6 4 -14 8 -10 9 -16 1 -21 -6
-3 -7 -11 -3 -18 3 -6 8 -26 9 -46 1 -22 -1 -29 -6 -21 -5 8 -7 17 -4 21 2 4
-1 11 -7 15 -8 5 -9 3 -4 -6 6 -10 3 -12 -11 -7 -17 6 -17 5 -3 -5 32 -27 31
-55 -3 -49 -5 0 -8 -4 -8 -10 0 -6 7 -9 15 -6 8 4 17 2 20 -3 3 -4 0 -10 -7
-12 -6 -2 -12 -11 -14 -20 -1 -11 3 -15 13 -11 12 5 12 7 1 14 -9 6 -6 8 9 6
21 -1 21 -2 5 -20 -16 -18 -16 -20 7 -39 17 -13 33 -17 50 -13 22 4 23 4 8 -5
-16 -10 -16 -13 -2 -27 12 -12 19 -13 30 -3 17 14 21 0 5 -16 -7 -7 -6 -11 4
-11 8 0 13 4 10 9 -8 13 6 9 21 -6 11 -10 11 -16 2 -27 -7 -7 -3 -6 9 4 18 15
22 15 40 1 18 -15 18 -15 -2 -5 -16 8 -21 7 -21 -4 0 -8 4 -12 8 -9 5 3 17 0
28 -5 16 -9 18 -8 15 12 -3 14 0 11 8 -8 10 -23 19 -30 41 -29 15 1 27 -3 27
-8 0 -5 -9 -6 -20 -3 -13 4 -20 2 -20 -6 0 -7 3 -10 6 -6 4 3 14 -3 23 -15 15
-17 21 -19 39 -9 26 14 43 14 19 0 -18 -11 -14 -29 6 -29 9 0 8 3 -1 8 -8 6
-2 9 17 9 26 0 28 -2 14 -12 -13 -10 -13 -14 -3 -20 9 -5 11 -4 6 3 -4 7 -3
12 2 12 6 0 12 -7 16 -15 4 -10 14 -14 32 -11 15 3 24 2 20 -1 -3 -3 0 -13 6
-22 8 -9 3 -8 -12 4 -15 12 -20 13 -12 4 6 -9 9 -18 6 -22 -9 -8 19 -3 35 7
10 7 12 6 6 -4 -6 -10 -4 -12 9 -7 9 4 14 3 11 -2 -3 -5 -1 -13 5 -16 8 -5 7
-11 -1 -21 -8 -10 -8 -14 0 -14 11 0 15 13 12 37 -1 6 3 15 9 18 6 4 11 1 9
-6 -1 -8 -1 -23 0 -34 1 -17 3 -18 11 -5 9 13 10 13 11 0 1 -8 1 -19 0 -23 -1
-5 3 -6 8 -2 6 3 9 11 7 18 -1 7 -1 9 1 4 3 -4 9 -4 15 -1 6 4 6 -2 -1 -14 -7
-14 -8 -23 -1 -27 10 -6 11 -5 14 14 0 5 5 13 9 18 5 4 8 4 7 -2 -5 -25 0 -37
13 -27 7 6 20 6 32 1 18 -9 18 -9 -2 -5 -13 2 -23 1 -23 -4 0 -9 31 -24 43
-21 5 1 6 -3 2 -9 -5 -8 -11 -7 -21 1 -20 16 -17 4 4 -17 16 -17 16 -17 -5
-12 -17 5 -21 2 -18 -14 4 -19 3 -19 -22 -3 -14 9 -22 12 -19 6 4 -6 0 -14 -9
-17 -13 -5 -13 -9 -3 -22 12 -14 10 -14 -12 -2 -23 12 -24 12 -11 -4 12 -14
12 -16 -4 -10 -10 4 -16 3 -13 -2 3 -5 -1 -15 -9 -23 -13 -12 -14 -11 -8 8 4
13 2 21 -5 21 -6 0 -8 -5 -4 -12 5 -8 2 -9 -11 -4 -15 5 -16 4 -5 -9 10 -13 9
-15 -9 -16 -11 -1 -25 -2 -31 -3 -11 -1 -12 -18 -3 -26 4 -3 4 0 0 5 -3 6 4
12 15 12 19 2 19 1 2 -11 -10 -8 -25 -11 -33 -8 -9 3 -12 1 -7 -6 5 -8 1 -10
-10 -5 -10 4 -15 2 -12 -3 4 -5 0 -18 -8 -29 -8 -10 -14 -14 -14 -8 0 6 -11
13 -25 15 -22 5 -23 3 -13 -10 11 -13 10 -15 -9 -10 -16 4 -20 2 -16 -8 3 -8
10 -11 16 -7 5 3 7 1 4 -4 -4 -6 -20 -10 -36 -9 -20 1 -27 -2 -24 -11 3 -7 10
-10 16 -6 6 3 7 1 3 -5 -5 -9 -13 -9 -28 -1 -12 6 -18 7 -14 1 9 -15 -20 -22
-33 -9 -7 7 -11 8 -10 2 1 -5 -1 -18 -6 -28 -6 -14 -10 -15 -21 -6 -12 10 -13
9 -8 -5 8 -21 -5 -21 -23 2 -13 15 -13 15 -3 -5 6 -13 7 -23 3 -24 -4 0 1 -4
12 -9 16 -7 17 -9 3 -9 -9 -1 -22 7 -28 17 -11 16 -11 16 -6 0 3 -10 1 -18 -5
-18 -6 0 -7 -5 -3 -12 4 -6 3 -8 -4 -4 -5 3 -12 3 -15 -1 -2 -5 -3 -3 -1 4 1
6 0 14 -3 17 -8 8 -33 -13 -33 -28 0 -6 5 -4 11 4 9 12 10 12 5 -3 -3 -10 -6
-21 -6 -23 0 -2 -5 -4 -11 -4 -5 0 -7 5 -4 10 3 6 1 10 -5 10 -6 0 -8 4 -5 10
3 6 -1 7 -10 3 -9 -3 -13 -9 -8 -12 14 -11 13 -29 -4 -43 -14 -11 -16 -11 -8
2 4 8 5 12 0 8 -4 -4 -15 -2 -24 5 -14 11 -14 10 -2 -5 11 -15 11 -18 0 -18
-7 0 -3 -7 9 -16 12 -8 19 -20 16 -26 -4 -7 -2 -8 4 -4 7 4 12 1 12 -9 0 -11
5 -15 14 -12 8 3 22 -1 33 -8 10 -8 23 -14 28 -14 6 0 2 4 -7 10 -10 5 -18 14
-18 19 0 6 9 2 20 -7 19 -16 19 -18 2 -37 -13 -16 -13 -18 -1 -8 9 6 19 9 22
5 4 -3 7 2 8 13 0 17 1 17 9 -3 6 -15 16 -21 33 -19 19 2 23 -1 19 -16 -2 -10
1 -18 7 -18 7 0 9 5 5 12 -4 7 -3 8 5 4 8 -5 9 -12 2 -19 -7 -9 -2 -12 16 -14
20 -1 23 1 12 9 -12 8 -12 9 1 5 8 -2 13 -12 12 -22 -3 -16 -2 -17 12 -6 14
12 16 11 10 -4 -5 -13 -4 -16 4 -11 11 7 17 -7 12 -29 -1 -5 2 -7 6 -2 4 4 14
1 23 -7 9 -8 21 -16 26 -18 6 -2 9 -6 7 -10 -1 -5 2 -8 8 -8 5 0 10 4 10 9 0
13 -26 32 -34 24 -4 -4 -4 1 0 11 6 16 8 17 16 2 5 -9 15 -13 21 -10 7 4 9 4
5 -1 -4 -4 0 -14 10 -22 9 -8 11 -11 3 -7 -9 4 -12 3 -8 -3 4 -6 18 -9 31 -8
14 2 31 -4 38 -13 8 -10 9 -13 1 -9 -6 4 -15 2 -19 -5 -4 -7 -4 -10 1 -6 11
11 47 -11 39 -24 -4 -6 -3 -8 4 -4 6 3 15 -1 20 -10 8 -15 10 -15 15 0 4 10 3
15 -3 11 -15 -9 -12 1 5 15 12 10 13 8 10 -10 -3 -18 -1 -20 18 -14 20 5 20 5
5 -7 -13 -10 -15 -18 -8 -29 6 -9 10 -10 10 -3 0 19 60 12 75 -10 8 -12 18
-16 27 -11 10 6 10 4 -1 -9 -13 -17 -37 -24 -27 -9 2 4 1 14 -5 22 -6 11 -9
12 -9 2 0 -7 -5 -10 -11 -6 -8 4 -7 9 2 15 10 6 7 8 -9 6 -28 -2 -28 -3 6 -32
34 -31 48 -31 67 -1 16 24 29 27 52 13 9 -5 11 -3 7 6 -3 8 1 14 10 14 8 0 12
-7 9 -16 -3 -12 -2 -12 7 2 6 9 9 21 6 25 -3 5 1 9 9 9 8 0 12 -4 9 -8 -2 -4
0 -11 6 -14 6 -4 9 -3 8 2 -4 12 39 52 48 45 5 -4 2 1 -5 11 -12 15 -12 17 4
11 12 -5 16 -4 11 4 -3 6 -2 13 3 16 5 4 13 1 17 -5 4 -8 3 -9 -4 -5 -16 10
-15 1 2 -13 11 -9 13 -6 12 16 -1 17 4 28 12 28 7 0 17 7 23 15 8 12 9 10 4
-7 -4 -14 -2 -23 4 -23 10 0 16 22 12 43 -1 5 4 5 11 1 22 -14 37 -13 31 2 -3
8 -10 14 -16 14 -6 0 -7 3 -4 6 4 4 13 1 22 -6 15 -12 20 -5 16 22 0 4 7 4 16
1 12 -5 14 -3 8 8 -4 8 -5 11 0 7 9 -9 47 10 41 20 -2 4 11 7 29 6 24 -1 32 2
29 11 -3 7 0 16 7 21 7 4 10 3 6 -3 -4 -6 -1 -13 7 -16 9 -4 12 0 9 12 -4 15
1 18 21 16 14 -2 28 1 32 6 3 5 10 6 16 3 6 -4 8 -2 4 4 -3 6 2 15 11 21 10 5
17 12 16 15 -6 14 -2 27 6 21 6 -3 14 2 19 11 7 13 13 14 29 5 25 -13 41 2 38
37 -1 16 2 19 9 12 5 -5 13 -10 16 -10 11 0 9 44 -3 59 -9 12 -9 13 1 7 7 -4
12 -1 12 9 0 10 -5 13 -12 9 -9 -5 -9 -2 1 9 11 14 11 17 0 17 -9 0 -10 3 -3
8 13 8 16 112 3 112 -5 0 -9 5 -9 11 0 5 4 8 9 4 5 -3 9 8 9 25 -1 31 -12 40
-21 18 -4 -10 -6 -10 -6 0 -1 7 6 15 14 18 8 4 15 10 15 16 0 5 -5 6 -12 2 -7
-5 -8 -3 -2 7 19 30 15 47 -11 45 -13 -2 -22 1 -19 6 3 5 13 7 22 6 11 -2 18
5 20 21 3 16 0 21 -9 16 -8 -6 -10 -4 -4 5 6 10 4 12 -9 7 -11 -4 -15 -3 -11
4 4 6 13 8 21 5 8 -3 14 1 14 9 0 8 -6 15 -14 15 -8 0 -17 4 -20 9 -4 5 3 7
14 4 14 -4 20 0 20 11 0 9 -6 16 -12 16 -9 0 -10 3 -2 8 15 10 16 104 0 95 -6
-4 -5 1 2 10 8 9 11 21 7 27 -9 14 -27 2 -19 -13 4 -7 3 -8 -1 -4 -17 15 -13
36 6 32 10 -2 19 0 19 6 0 5 -6 9 -12 9 -9 0 -8 4 2 10 12 7 12 13 4 27 -6 10
-16 18 -22 18 -6 0 -13 3 -17 7 -9 8 16 5 31 -5 8 -4 12 3 12 21 0 15 -5 30
-12 34 -8 6 -7 8 2 8 6 0 12 7 12 15 0 8 -5 15 -11 15 -5 0 -8 -4 -5 -8 3 -5
-1 -9 -8 -9 -15 0 -15 21 -1 34 4 4 5 2 1 -4 -5 -9 -2 -11 9 -6 23 8 1 21 -31
17 -15 -1 -30 6 -43 22 -10 13 -21 21 -25 19 -3 -3 -2 1 4 7 13 16 13 28 -1
28 -5 0 -7 -4 -4 -10 3 -5 0 -10 -8 -10 -8 0 -17 9 -20 21 -3 12 -10 18 -16
15 -5 -4 -14 2 -20 12 -7 14 -20 18 -50 17 -22 -1 -38 2 -35 7 5 7 -10 12 -29
9 -5 -1 -5 3 -2 9 5 8 14 6 29 -4 19 -12 23 -12 23 -1 0 8 -3 14 -6 13 -21 -2
-31 4 -25 14 4 6 3 8 -4 4 -5 -3 -13 0 -15 6 -4 8 -6 7 -6 -4 -1 -9 -5 -20
-11 -23 -5 -3 -7 0 -4 9 7 17 -42 46 -66 39 -10 -3 -11 -2 -3 4 7 5 9 13 5 18
-9 13 -45 13 -55 0 -4 -6 -7 -1 -5 10 2 12 -2 19 -10 17 -8 -1 -11 2 -7 8 5 8
13 6 24 -4 20 -19 31 -20 31 -5 0 5 -4 8 -9 5 -5 -4 -11 -1 -13 4 -2 6 -12 13
-23 14 -11 2 -19 9 -17 16 1 6 -2 9 -7 5 -6 -3 -9 -11 -7 -18 1 -7 1 -9 -1 -4
-3 4 -8 5 -12 3 -4 -3 -8 1 -8 9 0 8 4 15 9 15 5 0 6 4 3 10 -4 6 -11 5 -19
-3 -8 -6 -12 -15 -10 -18 2 -3 -3 -6 -10 -6 -7 0 -13 6 -13 13 0 7 4 11 9 8 4
-3 8 0 8 5 0 6 -7 11 -15 11 -20 0 -66 45 -57 56 4 4 1 4 -6 -1 -10 -5 -11
-10 -3 -18 6 -6 11 -16 11 -22 0 -5 -5 -3 -10 5 -5 8 -14 15 -20 15 -5 0 -10
5 -11 10 0 11 -39 29 -54 26 -5 -1 -5 3 2 10 8 7 9 18 3 28 -5 11 -3 23 7 36
13 16 15 17 10 3 -4 -10 -2 -18 3 -18 6 0 10 8 10 17 0 15 2 14 15 -3 14 -18
14 -18 10 3 -2 13 1 26 7 29 7 4 8 2 4 -4 -8 -14 20 -12 43 2 11 7 11 10 0 18
-11 7 -9 8 5 4 13 -5 17 -2 13 9 -4 8 -1 17 5 21 7 5 8 2 3 -6 -6 -9 -1 -10
16 -6 23 7 23 7 5 -8 -11 -9 -15 -16 -9 -16 16 0 36 27 29 39 -10 16 29 32 42
19 7 -7 12 -8 12 -2 0 6 -5 15 -11 21 -9 9 -7 11 9 6 14 -3 19 -10 15 -21 -4
-12 -1 -11 10 3 20 24 21 35 5 31 -7 -1 -10 -1 -6 1 4 3 10 4 14 3 3 -1 12 7
21 17 8 10 11 12 7 4 -5 -11 -3 -13 10 -8 10 4 20 7 22 7 2 0 4 5 4 11 0 5 -5
7 -12 3 -7 -4 -8 -3 -4 5 4 6 11 9 16 6 5 -3 11 -1 15 4 3 6 12 8 19 5 8 -3
17 0 21 6 6 9 10 9 17 -1 8 -11 9 -11 5 1 -2 9 -14 14 -28 13 -21 -2 -22 -1
-7 8 12 7 24 7 37 -1 26 -14 34 -13 28 4 -3 7 3 20 14 29 20 17 27 9 9 -9 -7
-7 -7 -11 3 -11 7 0 14 9 14 20 1 11 7 25 14 31 8 8 10 5 5 -14 -6 -21 -5 -22
4 -7 6 10 16 14 23 10 7 -4 5 2 -3 12 -14 17 -14 18 10 5 23 -12 24 -12 11 3
-16 20 -1 23 18 5 11 -11 12 -9 3 7 -9 18 -7 21 11 22 12 1 28 -3 37 -9 12
-10 13 -10 3 2 -18 20 -16 28 7 35 11 4 18 11 14 16 -3 5 -2 8 3 7 4 -2 8 2 8
7 0 6 -4 9 -9 7 -5 -2 -4 4 3 12 17 20 31 12 26 -14 -2 -11 0 -20 4 -20 5 0 9
11 9 23 0 35 -58 64 -96 48 l-27 -12 24 19 24 19 -24 0 c-42 1 -49 3 -49 14 0
8 4 8 13 1 9 -8 17 -8 27 0 13 8 12 9 -2 5 -16 -6 -43 15 -33 25 3 2 -9 3 -25
0 -17 -2 -30 -9 -30 -16 0 -6 -5 -3 -11 7 -8 13 -7 22 1 32 8 9 8 15 0 20 -6
4 -9 1 -8 -6 2 -6 -3 -14 -11 -17 -8 -3 -11 0 -7 7 5 7 1 9 -8 5 -10 -4 -16
-1 -16 10 0 10 -5 13 -17 9 -11 -4 -14 -3 -9 5 5 8 1 10 -10 5 -14 -5 -16 -3
-11 11 4 10 3 15 -3 11 -6 -3 -10 -1 -10 4 0 6 -5 11 -12 11 -9 0 -9 -3 0 -12
7 -7 12 -17 12 -22 0 -6 -5 -3 -11 7 -6 9 -14 15 -19 12 -4 -3 -10 2 -13 10
-4 8 -15 12 -27 10 -11 -2 -18 0 -15 6 4 5 10 7 15 4 5 -3 11 -1 14 3 7 11
-34 9 -54 -3 -11 -6 -10 -3 3 12 9 11 17 24 17 29 0 5 -4 3 -9 -5 -6 -10 -13
-10 -29 -2 -15 8 -22 8 -26 -2 -2 -6 -4 -1 -3 13 2 20 -2 25 -20 23 -25 -3
-29 7 -13 23 7 7 6 11 -4 11 -8 0 -13 -4 -10 -9 3 -4 -2 -8 -11 -8 -10 0 -13
-5 -9 -12 4 -7 3 -8 -5 -4 -8 6 -9 12 -2 20 14 17 1 29 -16 15 -10 -9 -13 -8
-13 1 0 8 -3 11 -6 7 -4 -3 -13 1 -22 9 -12 13 -17 13 -24 2 -8 -10 -9 -10 -5
2 2 8 11 14 20 14 9 -1 14 2 11 8 -3 5 -15 6 -26 2 -17 -5 -20 -3 -15 10 4 10
3 15 -2 12 -5 -3 -11 1 -15 9 -3 8 -12 12 -21 9 -8 -3 -15 -1 -15 4 0 6 8 13
18 15 16 4 16 5 0 6 -10 0 -22 -8 -28 -19z m220 -140 c-8 -5 -19 -10 -25 -10
-5 0 -3 5 5 10 8 5 20 10 25 10 6 0 3 -5 -5 -10z m330 -190 c0 -5 -4 -10 -10
-10 -5 0 -10 5 -10 10 0 6 5 10 10 10 6 0 10 -4 10 -10z m103 -65 c-3 -9 -8
-14 -10 -11 -3 3 -2 9 2 15 9 16 15 13 8 -4z m-1291 -32 c-6 -2 -9 -10 -6 -15
4 -7 2 -8 -5 -4 -13 9 -5 26 12 25 9 0 8 -2 -1 -6z m-35 -77 c0 -8 -6 -12 -14
-9 -7 3 -10 9 -7 14 8 14 21 11 21 -5z m0 -126 c-1 -11 -5 -20 -9 -20 -3 0 -6
9 -5 20 1 11 5 20 9 20 3 0 6 -9 5 -20z m23 -244 c0 -3 -4 -8 -10 -11 -5 -3
-10 -1 -10 4 0 6 5 11 10 11 6 0 10 -2 10 -4z m0 -160 c0 -3 -4 -8 -10 -11 -5
-3 -10 -1 -10 4 0 6 5 11 10 11 6 0 10 -2 10 -4z m1163 -153 c-4 -10 -9 -11
-19 -2 -18 15 -18 15 5 15 11 0 17 -5 14 -13z m21 -12 c3 -5 -1 -11 -9 -14 -9
-4 -12 -1 -8 9 6 16 10 17 17 5z m23 -23 c-3 -8 -6 -5 -6 6 -1 11 2 17 5 13 3
-3 4 -12 1 -19z m-1218 -45 c-12 -15 -12 -16 3 -10 10 3 20 2 22 -2 9 -15 -6
-21 -26 -10 -15 8 -17 13 -7 25 6 8 14 14 16 14 3 0 -1 -8 -8 -17z m71 -63 c0
-5 -2 -10 -4 -10 -3 0 -8 5 -11 10 -3 6 -1 10 4 10 6 0 11 -4 11 -10z m222
-142 c-6 -6 -16 -7 -22 -3 -9 6 -9 9 1 16 17 10 34 0 21 -13z m1063 -76 c-3
-3 -11 0 -18 7 -9 10 -8 11 6 5 10 -3 15 -9 12 -12z m-756 -225 c0 -9 -2 -8
-6 1 -2 6 -10 9 -15 6 -7 -4 -8 -2 -4 5 9 13 26 5 25 -12z m745 -153 c3 -8 2
-12 -4 -9 -6 3 -10 10 -10 16 0 14 7 11 14 -7z m16 -30 c0 -8 -19 -13 -24 -6
-3 5 1 9 9 9 8 0 15 -2 15 -3z m-1143 -56 c-3 -8 -6 -5 -6 6 -1 11 2 17 5 13
3 -3 4 -12 1 -19z m1108 -128 c3 -5 1 -10 -4 -10 -6 0 -11 5 -11 10 0 6 2 10
4 10 3 0 8 -4 11 -10z m-1295 -22 c0 -6 -6 -5 -15 2 -8 7 -15 14 -15 16 0 2 7
1 15 -2 8 -4 15 -11 15 -16z m1300 -4 c0 -8 -19 -13 -24 -6 -3 5 1 9 9 9 8 0
15 -2 15 -3z m-1260 -22 c0 -5 -7 -9 -15 -9 -8 0 -12 4 -9 9 3 4 9 8 15 8 5 0
9 -4 9 -8z m1144 -31 c3 -4 -3 -16 -13 -25 -16 -15 -19 -15 -24 -2 -4 10 -1
13 9 9 8 -3 14 -2 13 3 -4 22 5 31 15 15z m-884 -143 c0 -6 -6 -5 -15 2 -8 7
-15 14 -15 16 0 2 7 1 15 -2 8 -4 15 -11 15 -16z m170 -98 c0 -5 -2 -10 -4
-10 -3 0 -8 5 -11 10 -3 6 -1 10 4 10 6 0 11 -4 11 -10z m307 -15 c0 -19 -20
-26 -38 -13 -11 8 -11 9 3 5 9 -3 19 1 22 9 7 18 13 18 13 -1z"/>
<path d="M2140 3496 c0 -2 7 -7 16 -10 8 -3 12 -2 9 4 -6 10 -25 14 -25 6z"/>
<path d="M2039 3477 c6 -8 7 -18 3 -22 -4 -5 -1 -5 6 -1 10 6 10 11 1 22 -6 8
-14 14 -16 14 -3 0 0 -6 6 -13z"/>
<path d="M3567 3406 c-4 -10 -13 -13 -24 -10 -15 5 -16 4 -3 -5 11 -7 19 -6
29 4 8 8 12 17 9 20 -3 3 -8 -1 -11 -9z"/>
<path d="M2346 3345 c-9 -26 -7 -32 5 -12 6 10 9 21 6 23 -2 3 -7 -2 -11 -11z"/>
<path d="M3956 3348 c3 -5 10 -6 15 -3 13 9 11 12 -6 12 -8 0 -12 -4 -9 -9z"/>
<path d="M2365 3331 c-6 -11 13 -26 22 -17 4 3 1 6 -6 6 -7 0 -9 5 -6 10 3 6
4 10 1 10 -3 0 -7 -4 -11 -9z"/>
<path d="M3381 3298 c-1 -10 -7 -16 -13 -14 -7 1 -10 1 -5 -1 4 -3 4 -10 1
-16 -4 -7 1 -5 11 5 9 9 15 22 12 30 -4 9 -6 8 -6 -4z"/>
<path d="M4050 3289 c0 -5 5 -7 10 -4 6 3 10 8 10 11 0 2 -4 4 -10 4 -5 0 -10
-5 -10 -11z"/>
<path d="M1070 3270 c0 -6 7 -10 15 -10 8 0 15 2 15 4 0 2 -7 6 -15 10 -8 3
-15 1 -15 -4z"/>
<path d="M2521 3224 c0 -11 3 -14 6 -6 3 7 2 16 -1 19 -3 4 -6 -2 -5 -13z"/>
<path d="M1160 3212 c0 -5 7 -15 15 -22 8 -7 15 -9 15 -6 0 4 -7 14 -15 22 -8
9 -15 11 -15 6z"/>
<path d="M4209 3193 c-13 -16 -12 -17 4 -4 16 13 21 21 13 21 -2 0 -10 -8 -17
-17z"/>
<path d="M1230 3169 c0 -5 5 -7 10 -4 6 3 10 8 10 11 0 2 -4 4 -10 4 -5 0 -10
-5 -10 -11z"/>
<path d="M4376 3132 c-3 -5 1 -9 9 -9 8 0 12 4 9 9 -3 4 -7 8 -9 8 -2 0 -6 -4
-9 -8z"/>
<path d="M1445 3082 c-14 -20 -15 -24 -2 -14 9 8 20 11 26 8 5 -3 7 3 4 14 -6
24 -4 25 -28 -8z"/>
<path d="M3004 3052 c3 -5 0 -13 -6 -15 -9 -4 -10 -6 -1 -6 17 -1 25 16 12 25
-7 4 -9 3 -5 -4z"/>
<path d="M4368 3026 c-22 -16 -23 -23 -3 -23 8 0 13 3 10 5 -3 3 0 11 6 19 14
16 9 16 -13 -1z"/>
<path d="M2787 2934 c-3 -4 -3 -14 2 -23 5 -9 7 -26 6 -38 -1 -12 2 -20 7 -17
5 3 7 11 5 17 -2 7 3 20 12 30 8 10 11 18 6 17 -6 -2 -17 -2 -25 -1 -13 1 -13
2 0 11 8 5 10 10 4 10 -6 0 -14 -3 -17 -6z"/>
<path d="M4076 2852 c-3 -5 1 -9 9 -9 8 0 12 4 9 9 -3 4 -7 8 -9 8 -2 0 -6 -4
-9 -8z"/>
<path d="M2997 2823 c-10 -9 -9 -23 1 -23 5 0 9 7 9 15 0 17 -1 18 -10 8z"/>
<path d="M3923 2762 c-9 -5 -6 -12 10 -21 19 -13 21 -12 10 1 -7 8 -10 18 -6
21 9 9 1 8 -14 -1z"/>
<path d="M2801 2707 c-8 -10 -7 -19 5 -33 15 -18 15 -18 5 2 -7 15 -7 24 1 32
7 7 9 12 6 12 -3 0 -11 -6 -17 -13z"/>
<path d="M3750 2629 c0 -5 5 -7 10 -4 6 3 10 8 10 11 0 2 -4 4 -10 4 -5 0 -10
-5 -10 -11z"/>
<path d="M2990 2611 c0 -5 8 -15 18 -22 15 -12 16 -12 5 2 -7 9 -10 19 -6 22
3 4 1 7 -5 7 -7 0 -12 -4 -12 -9z"/>
<path d="M3747 2599 c7 -7 15 -10 18 -7 3 3 -2 9 -12 12 -14 6 -15 5 -6 -5z"/>
<path d="M2993 2568 c3 -9 1 -19 -6 -21 -7 -3 -2 -4 10 -4 18 1 20 4 10 17
-19 25 -20 26 -14 8z"/>
<path d="M2075 2550 c-3 -5 -1 -10 4 -10 6 0 11 5 11 10 0 6 -2 10 -4 10 -3 0
-8 -4 -11 -10z"/>
<path d="M3866 2552 c-3 -5 1 -9 9 -9 8 0 12 4 9 9 -3 4 -7 8 -9 8 -2 0 -6 -4
-9 -8z"/>
<path d="M3005 2521 c6 -11 4 -13 -8 -8 -23 9 -21 0 2 -13 15 -7 19 -7 17 5
-1 8 -6 18 -11 22 -4 5 -5 2 0 -6z"/>
<path d="M2990 2451 c0 -5 8 -15 18 -22 15 -12 16 -12 5 2 -7 9 -10 19 -6 22
3 4 1 7 -5 7 -7 0 -12 -4 -12 -9z"/>
<path d="M2993 2408 c3 -9 1 -19 -6 -21 -7 -3 -2 -4 10 -4 18 1 20 4 10 17
-19 25 -20 26 -14 8z"/>
<path d="M2801 2387 c-8 -10 -7 -19 5 -33 15 -18 15 -18 5 2 -7 15 -7 24 1 32
7 7 9 12 6 12 -3 0 -11 -6 -17 -13z"/>
<path d="M2076 2267 c3 -10 9 -15 12 -12 3 3 0 11 -7 18 -10 9 -11 8 -5 -6z"/>
<path d="M4321 2248 c-1 -17 14 -31 37 -34 6 -1 12 2 12 7 0 8 -7 10 -27 8 -4
0 -10 8 -14 18 -7 16 -8 16 -8 1z"/>
<path d="M1312 2227 c10 -8 14 -18 10 -22 -4 -5 -1 -5 6 -1 17 10 15 14 -10
26 -21 10 -21 10 -6 -3z"/>
<path d="M2070 2215 c0 -2 6 -8 13 -14 10 -8 14 -7 14 2 0 8 -6 14 -14 14 -7
0 -13 -1 -13 -2z"/>
<path d="M2786 2092 c-7 -12 12 -38 21 -29 4 5 1 12 -6 16 -11 7 -11 10 0 14
9 3 10 6 2 6 -6 1 -14 -3 -17 -7z"/>
<path d="M2798 2023 c7 -3 16 -2 19 1 4 3 -2 6 -13 5 -11 0 -14 -3 -6 -6z"/>
<path d="M2787 1783 c-4 -3 -2 -12 4 -19 7 -8 7 -14 -1 -19 -6 -3 -8 -11 -5
-16 12 -19 22 -8 22 26 0 34 -6 42 -20 28z"/>
<path d="M2200 1612 c0 -5 7 -9 15 -9 8 0 12 4 9 9 -3 4 -9 8 -15 8 -5 0 -9
-4 -9 -8z"/>
<path d="M547 1599 c7 -7 15 -10 18 -7 3 3 -2 9 -12 12 -14 6 -15 5 -6 -5z"/>
<path d="M3410 1599 c0 -5 5 -7 10 -4 6 3 10 8 10 11 0 2 -4 4 -10 4 -5 0 -10
-5 -10 -11z"/>
<path d="M487 1569 c7 -7 15 -10 18 -7 3 3 -2 9 -12 12 -14 6 -15 5 -6 -5z"/>
<path d="M341 1472 c-17 -31 -13 -40 5 -14 9 13 14 26 11 29 -3 2 -10 -4 -16
-15z"/>
<path d="M2793 1379 c-2 -23 3 -25 10 -4 4 8 3 16 -1 19 -4 3 -9 -4 -9 -15z"/>
<path d="M2604 1369 c-4 -7 -3 -9 4 -5 5 3 13 0 15 -6 4 -9 6 -10 6 -1 1 17
-16 25 -25 12z"/>
<path d="M2814 1369 c-3 -6 -2 -15 3 -20 5 -5 9 -1 9 11 0 23 -2 24 -12 9z"/>
<path d="M2800 1331 c0 -6 4 -13 10 -16 6 -3 7 1 4 9 -7 18 -14 21 -14 7z"/>
<path d="M4390 1329 c0 -5 5 -7 10 -4 6 3 10 8 10 11 0 2 -4 4 -10 4 -5 0 -10
-5 -10 -11z"/>
<path d="M4315 1299 c-4 -6 -4 -13 -1 -16 3 -4 6 -1 6 6 0 7 5 9 12 5 7 -4 8
-3 4 4 -9 15 -13 15 -21 1z"/>
<path d="M15 1259 c-4 -6 -5 -12 -2 -15 2 -3 7 2 10 11 7 17 1 20 -8 4z"/>
<path d="M3194 1219 c-4 -7 -3 -9 4 -5 5 3 13 0 15 -6 4 -9 6 -10 6 -1 1 17
-16 25 -25 12z"/>
<path d="M4081 1151 c-18 -14 -21 -20 -11 -26 9 -5 11 -4 6 3 -7 11 6 17 27
13 5 -1 6 3 3 8 -4 5 2 12 11 14 13 3 13 5 3 6 -8 0 -26 -8 -39 -18z"/>
<path d="M3926 1057 c3 -10 9 -15 12 -12 3 3 0 11 -7 18 -10 9 -11 8 -5 -6z"/>
<path d="M3715 933 c-11 -30 4 -33 22 -5 9 15 8 19 -3 19 -7 0 -16 -7 -19 -14z"/>
<path d="M3746 922 c-3 -5 1 -9 9 -9 8 0 12 4 9 9 -3 4 -7 8 -9 8 -2 0 -6 -4
-9 -8z"/>
</g>
</svg>
